<?xml version="1.0" encoding="utf-8"?>
<!-- Generator: Adobe Illustrator 16.0.0, SVG Export Plug-In . SVG Version: 6.00 Build 0)  -->
<!DOCTYPE svg PUBLIC "-//W3C//DTD SVG 1.1//EN" "http://www.w3.org/Graphics/SVG/1.1/DTD/svg11.dtd">
<svg version="1.1" id="Layer_1" xmlns="http://www.w3.org/2000/svg" xmlns:xlink="http://www.w3.org/1999/xlink" x="0px" y="0px"
	 width="264px" height="88px" viewBox="0 0 264 88" enable-background="new 0 0 264 88" xml:space="preserve">
<title>default-skin 2</title>
<g>
	<g>
		<path id="Shape" fill="#FFFFFF" d="M67.002,59.5v3.768C60.695,64.107,57.818,69.018,57,73c2.22-2.83,5.564-5.098,10.002-5.098
			V71.5L73,65.585L67.002,59.5z"/>
		<g>
			<path id="Shape_1_" fill="#FFFFFF" d="M13,29v-5h2v3h3v2H13z M13,15h5v2h-3v3h-2V15z M31,15v5h-2v-3h-3v-2H31z M31,29h-5v-2h3v-3
				h2V29z"/>
		</g>
		<g>
			<path fill="#FFFFFF" d="M62,24v5h-2v-3h-3v-2H62z M62,20h-5v-2h3v-3h2V20z M70,20v-5h2v3h3v2H70z M70,24h5v2h-3v3h-2V24z"/>
		</g>
		<path display="none" fill="#FFFFFF" d="M20.586,66l-5.656-5.656l1.414-1.414L22,64.586l5.656-5.656l1.414,1.414L23.414,66
			l5.656,5.656l-1.414,1.414L22,67.414l-5.656,5.656l-1.414-1.414L20.586,66z"/>
		<path display="none" fill="#FFFFFF" d="M111.785,65.03L110,63.5l3-3.5h-10v-2h10l-3-3.5l1.785-1.468L117,59L111.785,65.03z"/>
		<path display="none" fill="#FFFFFF" d="M152.215,65.03L154,63.5l-3-3.5h10v-2h-10l3-3.5l-1.785-1.468L147,59L152.215,65.03z"/>
		<g>
			<path id="Rectangle-11" fill="#FFFFFF" d="M160.957,28.543l-3.25-3.25l-1.413,1.414l3.25,3.25L160.957,28.543z"/>
			<path id="Oval-1" fill="none" stroke="#FFFFFF" stroke-width="1.5" d="M152.5,27c3.038,0,5.5-2.462,5.5-5.5s-2.462-5.5-5.5-5.5
				s-5.5,2.462-5.5,5.5S149.462,27,152.5,27z"/>
			<path fill="#FFFFFF" d="M150,21h5v1h-5V21z"/>
		</g>
		<g>
			<path fill="#FFFFFF" d="M116.957,28.543l-1.414,1.414l-3.25-3.25l1.414-1.414L116.957,28.543z"/>
			<path fill="none" stroke="#FFFFFF" stroke-width="1.5" d="M108.5,27c3.038,0,5.5-2.462,5.5-5.5s-2.462-5.5-5.5-5.5
				s-5.5,2.462-5.5,5.5S105.462,27,108.5,27z"/>
			<path fill="#FFFFFF" d="M106,21h5v1h-5V21z"/>
			<path fill="#FFFFFF" d="M109.043,19.008l-0.085,5l-1-0.017l0.085-5L109.043,19.008z"/>
		</g>
	</g>
</g>
<g id="arrow-back">
	<g>
		<g>
			<polygon fill="#FFFFFF" points="151.675,64.85 152.551,63.977 147.739,59.25 152.551,54.526 151.675,53.651 146.076,59.338 			
				"/>
		</g>
		<g>
			<rect x="151.063" y="58.639" fill="#FFFFFF" width="12.861" height="1.138"/>
		</g>
	</g>
</g>
<g id="arrow-forward">
	<g>
		<g>
			<polygon fill="#FFFFFF" points="112.369,53.608 111.493,54.481 116.304,59.208 111.493,63.932 112.369,64.807 117.967,59.12 			
				"/>
		</g>
		<g>
			<rect x="100.119" y="58.682" fill="#FFFFFF" width="12.861" height="1.138"/>
		</g>
	</g>
</g>
<g id="Layer_4">
	<g>
		
			<rect x="21.345" y="56.829" transform="matrix(-0.7074 0.7069 -0.7069 -0.7074 83.9086 97.2607)" fill="#FFFFFF" width="0.952" height="18.341"/>
	</g>
	<g>
		
			<rect x="12.695" y="65.479" transform="matrix(-0.7071 0.7071 -0.7071 -0.7071 83.9658 97.1294)" fill="#FFFFFF" width="18.342" height="0.952"/>
	</g>
</g>
</svg>
