<?xml version="1.0" encoding="utf-8"?>
<!-- Generator: Adobe Illustrator 16.0.0, SVG Export Plug-In . SVG Version: 6.00 Build 0)  -->
<!DOCTYPE svg PUBLIC "-//W3C//DTD SVG 1.1//EN" "http://www.w3.org/Graphics/SVG/1.1/DTD/svg11.dtd">
<svg version="1.1" id="Layer_1" xmlns="http://www.w3.org/2000/svg" xmlns:xlink="http://www.w3.org/1999/xlink" x="0px" y="0px"
	 width="264px" height="88px" viewBox="0 0 264 88" enable-background="new 0 0 264 88" xml:space="preserve">
<title>default-skin 2</title>
<g>
	<g>
		<path id="Shape" fill="#FFFFFF" d="M67.002,59.5v3.768C60.695,64.107,57.818,69.018,57,73c2.22-2.83,5.564-5.098,10.002-5.098
			V71.5L73,65.585L67.002,59.5z"/>
		<g display="none">
			<path id="Shape_1_" display="inline" fill="#FFFFFF" d="M13,29v-5h2v3h3v2H13z M13,15h5v2h-3v3h-2V15z M31,15v5h-2v-3h-3v-2H31z
				 M31,29h-5v-2h3v-3h2V29z"/>
		</g>
		<g display="none">
			<path display="inline" fill="#FFFFFF" d="M62,24v5h-2v-3h-3v-2H62z M62,20h-5v-2h3v-3h2V20z M70,20v-5h2v3h3v2H70z M70,24h5v2h-3
				v3h-2V24z"/>
		</g>
		<path display="none" fill="#FFFFFF" d="M20.586,66l-5.656-5.656l1.414-1.414L22,64.586l5.656-5.656l1.414,1.414L23.414,66
			l5.656,5.656l-1.414,1.414L22,67.414l-5.656,5.656l-1.414-1.414L20.586,66z"/>
		<path display="none" fill="#FFFFFF" d="M111.785,65.03L110,63.5l3-3.5h-10v-2h10l-3-3.5l1.785-1.468L117,59L111.785,65.03z"/>
		<path display="none" fill="#FFFFFF" d="M152.215,65.03L154,63.5l-3-3.5h10v-2h-10l3-3.5l-1.785-1.468L147,59L152.215,65.03z"/>
		<g display="none">
			<path id="Rectangle-11" display="inline" fill="#FFFFFF" d="M160.957,28.543l-3.25-3.25l-1.413,1.414l3.25,3.25L160.957,28.543z"
				/>
			<path id="Oval-1" display="inline" fill="none" stroke="#FFFFFF" stroke-width="1.5" d="M152.5,27c3.038,0,5.5-2.462,5.5-5.5
				s-2.462-5.5-5.5-5.5s-5.5,2.462-5.5,5.5S149.462,27,152.5,27z"/>
			<path display="inline" fill="#FFFFFF" d="M150,21h5v1h-5V21z"/>
		</g>
		<g display="none">
			<path display="inline" fill="#FFFFFF" d="M116.957,28.543l-1.414,1.414l-3.25-3.25l1.414-1.414L116.957,28.543z"/>
			<path display="inline" fill="none" stroke="#FFFFFF" stroke-width="1.5" d="M108.5,27c3.038,0,5.5-2.462,5.5-5.5
				s-2.462-5.5-5.5-5.5s-5.5,2.462-5.5,5.5S105.462,27,108.5,27z"/>
			<path display="inline" fill="#FFFFFF" d="M106,21h5v1h-5V21z"/>
			<path display="inline" fill="#FFFFFF" d="M109.043,19.008l-0.085,5l-1-0.017l0.085-5L109.043,19.008z"/>
		</g>
	</g>
</g>
<g id="arrow-back">
	<g>
		<g>
			<polygon fill="#FFFFFF" points="151.675,64.85 152.551,63.977 147.738,59.25 152.551,54.525 151.675,53.65 146.076,59.338 			"/>
		</g>
		<g>
			<rect x="151.063" y="58.639" fill="#FFFFFF" width="12.861" height="1.139"/>
		</g>
	</g>
</g>
<g id="arrow-forward">
	<g>
		<g>
			<polygon fill="#FFFFFF" points="112.369,53.607 111.493,54.48 116.304,59.208 111.493,63.932 112.369,64.807 117.967,59.12 			
				"/>
		</g>
		<g>
			<rect x="100.119" y="58.682" fill="#FFFFFF" width="12.861" height="1.139"/>
		</g>
	</g>
</g>
<g id="Layer_4">
	<g>
		
			<rect x="21.341" y="56.827" transform="matrix(0.7069 -0.7074 0.7074 0.7069 -40.2888 34.7801)" fill="#FFFFFF" width="0.953" height="18.342"/>
	</g>
	<g>
		
			<rect x="12.697" y="65.478" transform="matrix(0.7071 -0.7071 0.7071 0.7071 -40.2317 34.7803)" fill="#FFFFFF" width="18.342" height="0.952"/>
	</g>
</g>
<path fill="#FFFFFF" d="M14.21,16.292h3.31V15H13v4.439h1.21V16.292z M29.708,19.439h1.211V15h-4.521v1.292h3.31V19.439z
	 M14.292,25.17h-1.211v4.439h4.52v-1.292h-3.309V25.17z M29.79,28.318h-3.31v1.292H31V25.17h-1.21V28.318z"/>
<path fill="#FFFFFF" d="M60.309,18.148H57v1.291h4.52V15h-1.211V18.148z M71.61,15h-1.211v4.439h4.52v-1.291H71.61V15z M60.39,29.61
	h1.211v-4.439h-4.52v1.291h3.309V29.61z M71.69,26.462H75v-1.291h-4.521v4.439h1.211V26.462z"/>
<path fill="#FFFFFF" d="M112.703,25.66c1.803-2.33,1.578-5.71-0.452-7.814c-1.126-1.126-2.628-1.728-4.207-1.728
	c-1.578,0-3.081,0.601-4.208,1.728c-1.126,1.127-1.728,2.63-1.728,4.208c0,1.578,0.602,3.081,1.728,4.207
	c1.127,1.127,2.63,1.728,4.208,1.728c1.352,0,2.629-0.451,3.681-1.277l0,0l-0.977-0.977l0.977,0.977l4.808,4.733l0.977-0.977
	L112.703,25.66z M111.726,24.758l-0.451,0.525l-0.225,0.226l0,0l-0.301,0.225c0,0-1.126,0.827-2.629,0.901
	c-1.202,0.076-2.404-0.525-3.23-1.353c-0.902-0.901-1.353-2.028-1.353-3.23s0.526-2.404,1.353-3.23
	c0.901-0.9,2.028-1.353,3.23-1.353c1.202,0,2.329,0.526,3.23,1.429C112.928,20.476,113.078,23.03,111.726,24.758z M108.646,21.528
	h1.427v1.126h-1.427v1.427h-1.127v-1.427h-1.427v-1.126h1.427V20.1h1.127V21.528z"/>
<path fill="#FFFFFF" d="M156.669,25.378c1.804-2.329,1.578-5.71-0.451-7.813c-1.126-1.127-2.629-1.728-4.206-1.728
	c-1.578,0-3.08,0.601-4.207,1.728s-1.729,2.63-1.729,4.207c0,1.578,0.602,3.08,1.729,4.207s2.629,1.729,4.207,1.729
	c1.353,0,2.629-0.451,3.682-1.277l0,0l-0.978-0.977l0.978,0.977l4.807,4.732l0.978-0.977L156.669,25.378z M155.693,24.477
	l-0.451,0.525l-0.226,0.226l0,0l-0.301,0.226c0,0-1.127,0.825-2.629,0.901c-1.202,0.075-2.404-0.525-3.23-1.353
	c-0.902-0.901-1.353-2.028-1.353-3.23s0.525-2.404,1.353-3.23c0.901-0.901,2.028-1.352,3.23-1.352s2.329,0.525,3.23,1.427
	C156.895,20.195,157.045,22.749,155.693,24.477z M152.613,21.246h1.427v1.127h-1.427h-1.128h-1.427v-1.127h1.427H152.613z"/>
</svg>
